<svg xmlns="http://www.w3.org/2000/svg" width="2200" height="1510" viewBox="0 0 2200 1510"><defs><pattern id="paving" width="32" height="26" patternUnits="userSpaceOnUse"><rect width="32" height="26" fill="#ded7c1"/><path d="M0 0H32V26H0Z M16 0V26" fill="none" stroke="#b8b59e" stroke-width=".5"/></pattern><pattern id="cliff" width="24" height="20" patternUnits="userSpaceOnUse"><rect width="24" height="20" fill="#839386"/><path d="M0 15L12 3L24 8M8 20L15 12" stroke="#718274" fill="none"/></pattern><marker id="arr" markerWidth="8" markerHeight="8" refX="7" refY="4" orient="auto"><path d="M0 0L8 4L0 8Z" fill="#278b8c"/></marker></defs><rect width="100%" height="100%" fill="#f5f1e7"/><g font-family="Microsoft YaHei,SimHei,sans-serif"><rect x="0" y="0" width="2200" height="133" rx="0" fill="#24463b" stroke="none"/><text x="55.00" y="47.00" font-size="16" fill="#c0cdb8" font-weight="400" text-anchor="start">ECHO PLAY  /  MOUNTAIN TEMPLE  /  ENVIRONMENT ART</text><text x="55.00" y="101.00" font-size="37" fill="#f7f3e8" font-weight="700" text-anchor="start">D  河岸补给院 · 分区美术对照板</text><text x="2140.00" y="60.00" font-size="19" fill="#d8dbc4" font-weight="400" text-anchor="end">总纲 v2.0 · 补充图册 v1.0</text><text x="2140.00" y="99.00" font-size="19" fill="#d8dbc4" font-weight="400" text-anchor="end">世界原点 [40, -15, -2]  |  X东 / Z北 / H高程</text><rect x="55" y="165" width="1045" height="990" rx="14" fill="#fcfaf3" stroke="#d9dccc"/><text x="85.00" y="208.00" font-size="24" fill="#243f39" font-weight="700" text-anchor="start">01  正投影平面 / 北向固定</text><rect x="112.94117647058823" y="240.0" width="914.1176470588235" height="740.0" rx="0" fill="#e7e9d9" stroke="#b6c4b3"/><rect x="918.2352941176471" y="240.0" width="108.82352941176471" height="740.0" rx="0" fill="#aacacc" stroke="none"/><polyline points="112.94,980.00 112.94,240.00" fill="none" stroke="#cdd4c3" stroke-width="1" stroke-linecap="round" stroke-linejoin="round"/><text x="112.94" y="1003.00" font-size="14" fill="#62776d" font-weight="400" text-anchor="middle">0</text><polyline points="221.76,980.00 221.76,240.00" fill="none" stroke="#cdd4c3" stroke-width="1" stroke-linecap="round" stroke-linejoin="round"/><text x="221.76" y="1003.00" font-size="14" fill="#62776d" font-weight="400" text-anchor="middle">5</text><polyline points="330.59,980.00 330.59,240.00" fill="none" stroke="#cdd4c3" stroke-width="1" stroke-linecap="round" stroke-linejoin="round"/><text x="330.59" y="1003.00" font-size="14" fill="#62776d" font-weight="400" text-anchor="middle">10</text><polyline points="439.41,980.00 439.41,240.00" fill="none" stroke="#cdd4c3" stroke-width="1" stroke-linecap="round" stroke-linejoin="round"/><text x="439.41" y="1003.00" font-size="14" fill="#62776d" font-weight="400" text-anchor="middle">15</text><polyline points="548.24,980.00 548.24,240.00" fill="none" stroke="#cdd4c3" stroke-width="1" stroke-linecap="round" stroke-linejoin="round"/><text x="548.24" y="1003.00" font-size="14" fill="#62776d" font-weight="400" text-anchor="middle">20</text><polyline points="657.06,980.00 657.06,240.00" fill="none" stroke="#cdd4c3" stroke-width="1" stroke-linecap="round" stroke-linejoin="round"/><text x="657.06" y="1003.00" font-size="14" fill="#62776d" font-weight="400" text-anchor="middle">25</text><polyline points="765.88,980.00 765.88,240.00" fill="none" stroke="#cdd4c3" stroke-width="1" stroke-linecap="round" stroke-linejoin="round"/><text x="765.88" y="1003.00" font-size="14" fill="#62776d" font-weight="400" text-anchor="middle">30</text><polyline points="874.71,980.00 874.71,240.00" fill="none" stroke="#cdd4c3" stroke-width="1" stroke-linecap="round" stroke-linejoin="round"/><text x="874.71" y="1003.00" font-size="14" fill="#62776d" font-weight="400" text-anchor="middle">35</text><polyline points="983.53,980.00 983.53,240.00" fill="none" stroke="#cdd4c3" stroke-width="1" stroke-linecap="round" stroke-linejoin="round"/><text x="983.53" y="1003.00" font-size="14" fill="#62776d" font-weight="400" text-anchor="middle">40</text><polyline points="112.94,980.00 1027.06,980.00" fill="none" stroke="#cdd4c3" stroke-width="1" stroke-linecap="round" stroke-linejoin="round"/><text x="102.94" y="985.00" font-size="14" fill="#62776d" font-weight="400" text-anchor="end">0</text><polyline points="112.94,871.18 1027.06,871.18" fill="none" stroke="#cdd4c3" stroke-width="1" stroke-linecap="round" stroke-linejoin="round"/><text x="102.94" y="876.18" font-size="14" fill="#62776d" font-weight="400" text-anchor="end">5</text><polyline points="112.94,762.35 1027.06,762.35" fill="none" stroke="#cdd4c3" stroke-width="1" stroke-linecap="round" stroke-linejoin="round"/><text x="102.94" y="767.35" font-size="14" fill="#62776d" font-weight="400" text-anchor="end">10</text><polyline points="112.94,653.53 1027.06,653.53" fill="none" stroke="#cdd4c3" stroke-width="1" stroke-linecap="round" stroke-linejoin="round"/><text x="102.94" y="658.53" font-size="14" fill="#62776d" font-weight="400" text-anchor="end">15</text><polyline points="112.94,544.71 1027.06,544.71" fill="none" stroke="#cdd4c3" stroke-width="1" stroke-linecap="round" stroke-linejoin="round"/><text x="102.94" y="549.71" font-size="14" fill="#62776d" font-weight="400" text-anchor="end">20</text><polyline points="112.94,435.88 1027.06,435.88" fill="none" stroke="#cdd4c3" stroke-width="1" stroke-linecap="round" stroke-linejoin="round"/><text x="102.94" y="440.88" font-size="14" fill="#62776d" font-weight="400" text-anchor="end">25</text><polyline points="112.94,327.06 1027.06,327.06" fill="none" stroke="#cdd4c3" stroke-width="1" stroke-linecap="round" stroke-linejoin="round"/><text x="102.94" y="332.06" font-size="14" fill="#62776d" font-weight="400" text-anchor="end">30</text><rect x="112.94117647058823" y="240.0" width="805.2941176470589" height="740.0" rx="0" fill="url(#paving)" stroke="#6e8173"/><rect x="217.41176470588235" y="853.7647058823529" width="21.764705882352942" height="43.529411764705884" rx="0" fill="#64786b" stroke="#6e8173"/><rect x="220.41176470588235" y="856.7647058823529" width="15.764705882352942" height="37.529411764705884" rx="0" fill="#839381" stroke="none"/><rect x="260.94117647058823" y="740.5882352941177" width="119.70588235294119" height="21.764705882352942" rx="0" fill="#64786b" stroke="#6e8173"/><rect x="263.94117647058823" y="743.5882352941177" width="113.70588235294119" height="15.764705882352942" rx="0" fill="#839381" stroke="none"/><rect x="352.3529411764706" y="675.2941176470588" width="26.11764705882353" height="87.05882352941177" rx="0" fill="#64786b" stroke="#6e8173"/><rect x="355.3529411764706" y="678.2941176470588" width="20.11764705882353" height="81.05882352941177" rx="0" fill="#839381" stroke="none"/><rect x="504.70588235294116" y="718.8235294117648" width="21.764705882352942" height="87.05882352941177" rx="0" fill="#64786b" stroke="#6e8173"/><rect x="507.70588235294116" y="721.8235294117648" width="15.764705882352942" height="81.05882352941177" rx="0" fill="#839381" stroke="none"/><rect x="635.2941176470588" y="588.2352941176471" width="21.764705882352942" height="174.11764705882354" rx="0" fill="#64786b" stroke="#6e8173"/><rect x="638.2941176470588" y="591.2352941176471" width="15.764705882352942" height="168.11764705882354" rx="0" fill="#839381" stroke="none"/><rect x="831.1764705882354" y="544.7058823529412" width="76.1764705882353" height="43.529411764705884" rx="0" fill="#64786b" stroke="#6e8173"/><rect x="834.1764705882354" y="547.7058823529412" width="70.1764705882353" height="37.529411764705884" rx="0" fill="#839381" stroke="none"/><rect x="548.2352941176471" y="279.17647058823525" width="21.764705882352942" height="76.1764705882353" rx="0" fill="#64786b" stroke="#6e8173"/><rect x="551.2352941176471" y="282.17647058823525" width="15.764705882352942" height="70.1764705882353" rx="0" fill="#839381" stroke="none"/><rect x="657.0588235294117" y="522.9411764705883" width="152.3529411764706" height="21.764705882352942" rx="0" fill="#64786b" stroke="#6e8173"/><rect x="660.0588235294117" y="525.9411764705883" width="146.3529411764706" height="15.764705882352942" rx="0" fill="#839381" stroke="none"/><rect x="646.1764705882354" y="292.235294117647" width="21.764705882352942" height="65.29411764705883" rx="0" fill="#64786b" stroke="#6e8173"/><rect x="649.1764705882354" y="295.235294117647" width="15.764705882352942" height="59.294117647058826" rx="0" fill="#839381" stroke="none"/><ellipse cx="145.58823529411765" cy="871.1764705882354" rx="14.147058823529413" ry="11.97058823529412" fill="#a7bc82" stroke="#879f6e"/><ellipse cx="166.26470588235293" cy="873.3529411764706" rx="15.235294117647058" ry="11.97058823529412" fill="#a7bc82" stroke="#879f6e"/><ellipse cx="156.47058823529412" cy="866.8235294117648" rx="13.058823529411764" ry="11.97058823529412" fill="#a7bc82" stroke="#879f6e"/><ellipse cx="319.7058823529412" cy="936.4705882352941" rx="14.147058823529413" ry="11.97058823529412" fill="#a7bc82" stroke="#879f6e"/><ellipse cx="340.3823529411765" cy="938.6470588235294" rx="15.235294117647058" ry="11.97058823529412" fill="#a7bc82" stroke="#879f6e"/><ellipse cx="330.5882352941177" cy="932.1176470588235" rx="13.058823529411764" ry="11.97058823529412" fill="#a7bc82" stroke="#879f6e"/><ellipse cx="319.7058823529412" cy="871.1764705882354" rx="14.147058823529413" ry="11.97058823529412" fill="#a7bc82" stroke="#879f6e"/><ellipse cx="340.3823529411765" cy="873.3529411764706" rx="15.235294117647058" ry="11.97058823529412" fill="#a7bc82" stroke="#879f6e"/><ellipse cx="330.5882352941177" cy="866.8235294117648" rx="13.058823529411764" ry="11.97058823529412" fill="#a7bc82" stroke="#879f6e"/><ellipse cx="385.0" cy="610.0" rx="14.147058823529413" ry="11.97058823529412" fill="#a7bc82" stroke="#879f6e"/><ellipse cx="405.6764705882353" cy="612.1764705882352" rx="15.235294117647058" ry="11.97058823529412" fill="#a7bc82" stroke="#879f6e"/><ellipse cx="395.88235294117646" cy="605.6470588235294" rx="13.058823529411764" ry="11.97058823529412" fill="#a7bc82" stroke="#879f6e"/><ellipse cx="537.3529411764706" cy="544.7058823529412" rx="14.147058823529413" ry="11.97058823529412" fill="#a7bc82" stroke="#879f6e"/><ellipse cx="558.0294117647059" cy="546.8823529411765" rx="15.235294117647058" ry="11.97058823529412" fill="#a7bc82" stroke="#879f6e"/><ellipse cx="548.2352941176471" cy="540.3529411764706" rx="13.058823529411764" ry="11.97058823529412" fill="#a7bc82" stroke="#879f6e"/><ellipse cx="711.4705882352943" cy="762.3529411764706" rx="14.147058823529413" ry="11.97058823529412" fill="#a7bc82" stroke="#879f6e"/><ellipse cx="732.1470588235295" cy="764.5294117647059" rx="15.235294117647058" ry="11.97058823529412" fill="#a7bc82" stroke="#879f6e"/><ellipse cx="722.3529411764707" cy="758.0" rx="13.058823529411764" ry="11.97058823529412" fill="#a7bc82" stroke="#879f6e"/><ellipse cx="733.2352941176472" cy="501.1764705882353" rx="14.147058823529413" ry="11.97058823529412" fill="#a7bc82" stroke="#879f6e"/><ellipse cx="753.9117647058824" cy="503.3529411764706" rx="15.235294117647058" ry="11.97058823529412" fill="#a7bc82" stroke="#879f6e"/><ellipse cx="744.1176470588236" cy="496.8235294117647" rx="13.058823529411764" ry="11.97058823529412" fill="#a7bc82" stroke="#879f6e"/><ellipse cx="748.470588235294" cy="392.3529411764706" rx="14.147058823529413" ry="11.97058823529412" fill="#a7bc82" stroke="#879f6e"/><ellipse cx="769.1470588235293" cy="394.5294117647059" rx="15.235294117647058" ry="11.97058823529412" fill="#a7bc82" stroke="#879f6e"/><ellipse cx="759.3529411764705" cy="388.0" rx="13.058823529411764" ry="11.97058823529412" fill="#a7bc82" stroke="#879f6e"/><ellipse cx="798.529411764706" cy="305.29411764705884" rx="14.147058823529413" ry="11.97058823529412" fill="#a7bc82" stroke="#879f6e"/><ellipse cx="819.2058823529412" cy="307.47058823529414" rx="15.235294117647058" ry="11.97058823529412" fill="#a7bc82" stroke="#879f6e"/><ellipse cx="809.4117647058824" cy="300.94117647058823" rx="13.058823529411764" ry="11.97058823529412" fill="#a7bc82" stroke="#879f6e"/><ellipse cx="907.3529411764706" cy="392.3529411764706" rx="14.147058823529413" ry="11.97058823529412" fill="#a7bc82" stroke="#879f6e"/><ellipse cx="928.0294117647059" cy="394.5294117647059" rx="15.235294117647058" ry="11.97058823529412" fill="#a7bc82" stroke="#879f6e"/><ellipse cx="918.2352941176471" cy="388.0" rx="13.058823529411764" ry="11.97058823529412" fill="#a7bc82" stroke="#879f6e"/><polyline points="591.76,653.53 591.76,827.65 439.41,827.65 439.41,653.53 591.76,653.53" fill="none" stroke="#93759c" stroke-width="2.5" stroke-linecap="round" stroke-linejoin="round" stroke-dasharray="8 7"/><polyline points="744.12,718.82 831.18,697.06 744.12,631.76 700.59,631.76 744.12,718.82" fill="none" stroke="#93759c" stroke-width="2.5" stroke-linecap="round" stroke-linejoin="round" stroke-dasharray="8 7"/><polyline points="461.18,479.41 461.18,588.24 613.53,588.24 613.53,479.41 461.18,479.41" fill="none" stroke="#93759c" stroke-width="2.5" stroke-linecap="round" stroke-linejoin="round" stroke-dasharray="8 7"/><polyline points="156.47,936.47 178.24,871.18 200.00,871.18" fill="none" stroke="#278b8c" stroke-width="3.5" stroke-linecap="round" stroke-linejoin="round" marker-end="url(#arr)"/><polyline points="330.59,936.47 374.12,936.47 400.24,849.41 400.24,610.00 548.24,544.71 530.82,327.06" fill="none" stroke="#278b8c" stroke-width="3.5" stroke-linecap="round" stroke-linejoin="round" marker-end="url(#arr)"/><polyline points="722.35,762.35 744.12,718.82 765.88,610.00 678.82,570.82 613.53,562.12 613.53,501.18 744.12,501.18 748.47,392.35" fill="none" stroke="#278b8c" stroke-width="3.5" stroke-linecap="round" stroke-linejoin="round" marker-end="url(#arr)"/><polyline points="787.65,348.82 831.18,305.29 896.47,327.06 918.24,327.06" fill="none" stroke="#278b8c" stroke-width="3.5" stroke-linecap="round" stroke-linejoin="round" marker-end="url(#arr)"/><circle cx="287.05882352941177" cy="827.6470588235294" r="9" fill="#b65544" stroke="#f5f1e7"/><polyline points="287.06,827.65 287.06,804.65" fill="none" stroke="#b65544" stroke-width="3" stroke-linecap="round" stroke-linejoin="round"/><text x="298.06" y="814.65" font-size="18" fill="#b65544" font-weight="700" text-anchor="start">D01</text><circle cx="439.4117647058824" cy="784.1176470588235" r="9" fill="#b65544" stroke="#f5f1e7"/><polyline points="439.41,784.12 416.41,784.12" fill="none" stroke="#b65544" stroke-width="3" stroke-linecap="round" stroke-linejoin="round"/><text x="450.41" y="771.12" font-size="18" fill="#b65544" font-weight="700" text-anchor="start">D02 信</text><circle cx="591.7647058823529" cy="653.5294117647059" r="9" fill="#b65544" stroke="#f5f1e7"/><polyline points="591.76,653.53 591.76,676.53" fill="none" stroke="#b65544" stroke-width="3" stroke-linecap="round" stroke-linejoin="round"/><text x="602.76" y="640.53" font-size="18" fill="#b65544" font-weight="700" text-anchor="start">D03</text><circle cx="744.1176470588236" cy="718.8235294117648" r="9" fill="#b65544" stroke="#f5f1e7"/><polyline points="744.12,718.82 766.43,713.26" fill="none" stroke="#b65544" stroke-width="3" stroke-linecap="round" stroke-linejoin="round"/><text x="755.12" y="705.82" font-size="18" fill="#b65544" font-weight="700" text-anchor="start">D04 信</text><circle cx="896.4705882352941" cy="479.4117647058824" r="9" fill="#b65544" stroke="#f5f1e7"/><polyline points="896.47,479.41 880.21,495.68" fill="none" stroke="#b65544" stroke-width="3" stroke-linecap="round" stroke-linejoin="round"/><text x="907.47" y="466.41" font-size="18" fill="#b65544" font-weight="700" text-anchor="start">D05</text><circle cx="613.5294117647059" cy="392.3529411764706" r="9" fill="#b65544" stroke="#f5f1e7"/><polyline points="613.53,392.35 636.53,392.35" fill="none" stroke="#b65544" stroke-width="3" stroke-linecap="round" stroke-linejoin="round"/><text x="624.53" y="379.35" font-size="18" fill="#b65544" font-weight="700" text-anchor="start">D06</text><circle cx="787.6470588235295" cy="392.3529411764706" r="9" fill="#b65544" stroke="#f5f1e7"/><polyline points="787.65,392.35 810.65,392.35" fill="none" stroke="#b65544" stroke-width="3" stroke-linecap="round" stroke-linejoin="round"/><text x="798.65" y="379.35" font-size="18" fill="#b65544" font-weight="700" text-anchor="start">D07 信</text><circle cx="461.1764705882353" cy="479.4117647058824" r="9" fill="#b65544" stroke="#f5f1e7"/><polyline points="461.18,479.41 461.18,502.41" fill="none" stroke="#b65544" stroke-width="3" stroke-linecap="round" stroke-linejoin="round"/><text x="472.18" y="466.41" font-size="18" fill="#b65544" font-weight="700" text-anchor="start">D08</text><ellipse cx="879.0588235294119" cy="697.0588235294117" rx="22.85294117647059" ry="9.794117647058824" fill="#876a48" stroke="#66543c"/><circle cx="903.0000000000002" cy="697.0588235294117" r="7.617647058823529" fill="#795b3b" stroke="none"/><polyline points="908.44,697.06 920.41,697.06" fill="none" stroke="#b48135" stroke-width="3" stroke-linecap="round" stroke-linejoin="round" marker-end="url(#arr)"/><rect x="805.0588235294117" y="679.6470588235295" width="32.64705882352941" height="34.82352941176471" rx="0" fill="#dda482" stroke="none"/><text x="787.65" y="760.18" font-size="16" fill="#b48135" font-weight="700" text-anchor="start">牛后踢干岸</text><text x="134.71" y="283.53" font-size="17" fill="#243f39" font-weight="700" text-anchor="start">西线岩墙</text><text x="678.82" y="283.53" font-size="17" fill="#243f39" font-weight="700" text-anchor="start">文书院</text><text x="929.12" y="588.24" font-size="16" fill="#62776d" font-weight="700" text-anchor="start">山溪</text><text x="134.71" y="958.24" font-size="17" fill="#278b8c" font-weight="700" text-anchor="start">会合口</text><text x="852.94" y="277.00" font-size="17" fill="#278b8c" font-weight="700" text-anchor="start">至E</text><polyline points="112.94,697.06 1027.06,697.06" fill="none" stroke="#675f52" stroke-width="1.8" stroke-linecap="round" stroke-linejoin="round" stroke-dasharray="12 5 2 5"/><text x="117.94" y="689.06" font-size="17" fill="#675f52" font-weight="700" text-anchor="start">S</text><text x="1032.06" y="689.06" font-size="17" fill="#675f52" font-weight="700" text-anchor="start">S′</text><polyline points="1025.00,273.00 1025.00,238.00" fill="none" stroke="#243f39" stroke-width="3" stroke-linecap="round" stroke-linejoin="round" marker-end="url(#arr)"/><text x="1025.00" y="229.00" font-size="19" fill="#243f39" font-weight="700" text-anchor="middle">N</text><text x="86.00" y="1085.00" font-size="18" fill="#62776d" font-weight="400" text-anchor="start">青线：沿用教学路线片段  ·  红点：原守卫  ·  紫线：巡逻</text><text x="86.00" y="1117.00" font-size="18" fill="#62776d" font-weight="400" text-anchor="start">金色：高差 / 交互  ·  深绿：硬遮挡  ·  椭圆灌木：隐藏区</text><polyline points="112.94,1025.00 221.76,1025.00" fill="none" stroke="#243f39" stroke-width="4" stroke-linecap="round" stroke-linejoin="round"/><text x="112.94" y="1052.00" font-size="15" fill="#62776d" font-weight="400" text-anchor="start">5 m 比例尺；各图可缩放，坐标不缩放</text><rect x="1130" y="165" width="1015" height="535" rx="14" fill="#e9eddf" stroke="#d9dccc"/><text x="1160.00" y="207.00" font-size="24" fill="#243f39" font-weight="700" text-anchor="start">02  同源体块 / 从西南向东北看</text><polygon points="1621.02,617.96 2015.08,428.81 2015.08,445.85 1621.02,635.00" fill="#8d9b87" stroke="#6a7e6b" opacity="1"/><polygon points="1621.02,617.96 1258.92,444.15 1258.92,461.19 1621.02,635.00" fill="#a4ad96" stroke="#6a7e6b" opacity="1"/><polygon points="1621.02,617.96 2015.08,428.81 1652.98,255.00 1258.92,444.15" fill="#d9d5bf" stroke="#6a7e6b" opacity="1"/><polygon points="1631.67,558.66 1642.33,553.55 1642.33,568.88 1631.67,574.00" fill="#8d9b87" stroke="#6a7e6b" opacity="1"/><polygon points="1631.67,558.66 1610.37,548.43 1610.37,563.77 1631.67,574.00" fill="#a4ad96" stroke="#6a7e6b" opacity="1"/><polygon points="1631.67,558.66 1642.33,553.55 1621.02,543.32 1610.37,548.43" fill="#64786b" stroke="#6a7e6b" opacity="1"/><polygon points="1586.94,516.74 1645.52,488.62 1645.52,503.96 1586.94,532.08" fill="#8d9b87" stroke="#6a7e6b" opacity="1"/><polygon points="1586.94,516.74 1576.29,511.63 1576.29,526.96 1586.94,532.08" fill="#a4ad96" stroke="#6a7e6b" opacity="1"/><polygon points="1586.94,516.74 1645.52,488.62 1634.87,483.51 1576.29,511.63" fill="#64786b" stroke="#6a7e6b" opacity="1"/><polygon points="1631.67,495.27 1644.46,489.13 1644.46,504.47 1631.67,510.61" fill="#8d9b87" stroke="#6a7e6b" opacity="1"/><polygon points="1631.67,495.27 1589.07,474.82 1589.07,490.16 1631.67,510.61" fill="#a4ad96" stroke="#6a7e6b" opacity="1"/><polygon points="1631.67,495.27 1644.46,489.13 1601.85,468.69 1589.07,474.82" fill="#64786b" stroke="#6a7e6b" opacity="1"/><polygon points="1727.53,469.71 1738.18,464.60 1738.18,479.93 1727.53,485.04" fill="#8d9b87" stroke="#6a7e6b" opacity="1"/><polygon points="1727.53,469.71 1684.93,449.26 1684.93,464.60 1727.53,485.04" fill="#a4ad96" stroke="#6a7e6b" opacity="1"/><polygon points="1727.53,469.71 1738.18,464.60 1695.58,444.15 1684.93,449.26" fill="#64786b" stroke="#6a7e6b" opacity="1"/><polygon points="1770.13,428.81 1780.78,423.70 1780.78,439.04 1770.13,444.15" fill="#8d9b87" stroke="#6a7e6b" opacity="1"/><polygon points="1770.13,428.81 1684.93,387.91 1684.93,403.25 1770.13,444.15" fill="#a4ad96" stroke="#6a7e6b" opacity="1"/><polygon points="1770.13,428.81 1780.78,423.70 1695.58,382.80 1684.93,387.91" fill="#64786b" stroke="#6a7e6b" opacity="1"/><polygon points="1780.78,341.91 1818.05,324.01 1818.05,339.35 1780.78,357.24" fill="#8d9b87" stroke="#6a7e6b" opacity="1"/><polygon points="1780.78,341.91 1759.48,331.68 1759.48,347.02 1780.78,357.24" fill="#a4ad96" stroke="#6a7e6b" opacity="1"/><polygon points="1780.78,341.91 1818.05,324.01 1796.75,313.79 1759.48,331.68" fill="#64786b" stroke="#6a7e6b" opacity="1"/><polygon points="1528.37,353.66 1539.02,348.55 1539.02,363.89 1528.37,369.00" fill="#8d9b87" stroke="#6a7e6b" opacity="1"/><polygon points="1528.37,353.66 1491.09,335.77 1491.09,351.11 1528.37,369.00" fill="#a4ad96" stroke="#6a7e6b" opacity="1"/><polygon points="1528.37,353.66 1539.02,348.55 1501.74,330.66 1491.09,335.77" fill="#64786b" stroke="#6a7e6b" opacity="1"/><polygon points="1674.28,372.58 1748.83,336.79 1748.83,352.13 1674.28,387.91" fill="#8d9b87" stroke="#6a7e6b" opacity="1"/><polygon points="1674.28,372.58 1663.63,367.47 1663.63,382.80 1674.28,387.91" fill="#a4ad96" stroke="#6a7e6b" opacity="1"/><polygon points="1674.28,372.58 1748.83,336.79 1738.18,331.68 1663.63,367.47" fill="#64786b" stroke="#6a7e6b" opacity="1"/><polygon points="1577.36,331.17 1588.01,326.06 1588.01,341.39 1577.36,346.51" fill="#8d9b87" stroke="#6a7e6b" opacity="1"/><polygon points="1577.36,331.17 1545.41,315.83 1545.41,331.17 1577.36,346.51" fill="#a4ad96" stroke="#6a7e6b" opacity="1"/><polygon points="1577.36,331.17 1588.01,326.06 1556.06,310.72 1545.41,315.83" fill="#64786b" stroke="#6a7e6b" opacity="1"/><polyline points="1631.67,541.28 1631.67,527.43" fill="none" stroke="#b65544" stroke-width="5" stroke-linecap="round" stroke-linejoin="round"/><circle cx="1631.6748878923768" cy="524.7701793721974" r="2.34304932735426" fill="#b65544" stroke="none"/><polyline points="1684.93,495.27 1684.93,481.42" fill="none" stroke="#b65544" stroke-width="5" stroke-linecap="round" stroke-linejoin="round"/><circle cx="1684.92600896861" cy="478.76121076233187" r="2.34304932735426" fill="#b65544" stroke="none"/><polyline points="1695.58,428.81 1695.58,414.97" fill="none" stroke="#b65544" stroke-width="5" stroke-linecap="round" stroke-linejoin="round"/><circle cx="1695.5762331838566" cy="412.3038116591929" r="2.34304932735426" fill="#b65544" stroke="none"/><polyline points="1802.08,408.36 1802.08,394.52" fill="none" stroke="#b65544" stroke-width="5" stroke-linecap="round" stroke-linejoin="round"/><circle cx="1802.078475336323" cy="391.85538116591937" r="2.34304932735426" fill="#b65544" stroke="none"/><polyline points="1759.48,316.35 1759.48,302.50" fill="none" stroke="#b65544" stroke-width="5" stroke-linecap="round" stroke-linejoin="round"/><circle cx="1759.4775784753365" cy="299.8374439461884" r="2.34304932735426" fill="#b65544" stroke="none"/><polyline points="1578.42,362.35 1578.42,348.51" fill="none" stroke="#b65544" stroke-width="5" stroke-linecap="round" stroke-linejoin="round"/><circle cx="1578.4237668161436" cy="345.84641255605385" r="2.34304932735426" fill="#b65544" stroke="none"/><polyline points="1663.63,321.46 1663.63,307.61" fill="none" stroke="#b65544" stroke-width="5" stroke-linecap="round" stroke-linejoin="round"/><circle cx="1663.6255605381166" cy="304.94955156950675" r="2.34304932735426" fill="#b65544" stroke="none"/><polyline points="1546.47,418.59 1546.47,404.74" fill="none" stroke="#b65544" stroke-width="5" stroke-linecap="round" stroke-linejoin="round"/><circle cx="1546.4730941704036" cy="402.0795964125561" r="2.34304932735426" fill="#b65544" stroke="none"/><ellipse cx="1589.0739910313903" cy="579.1748878923767" rx="11.715246636771301" ry="6.390134529147981" fill="#a0b581" stroke="none"/><ellipse cx="1706.226457399103" cy="553.6143497757848" rx="11.715246636771301" ry="6.390134529147981" fill="#a0b581" stroke="none"/><ellipse cx="1674.2757847533633" cy="538.2780269058296" rx="11.715246636771301" ry="6.390134529147981" fill="#a0b581" stroke="none"/><ellipse cx="1578.4237668161436" cy="461.59641255605385" rx="11.715246636771301" ry="6.390134529147981" fill="#a0b581" stroke="none"/><ellipse cx="1621.02466367713" cy="410.47533632287" rx="11.715246636771301" ry="6.390134529147981" fill="#a0b581" stroke="none"/><ellipse cx="1812.7286995515697" cy="420.69955156950675" rx="11.715246636771301" ry="6.390134529147981" fill="#a0b581" stroke="none"/><ellipse cx="1695.5762331838566" cy="354.24215246636777" rx="11.715246636771301" ry="6.390134529147981" fill="#a0b581" stroke="none"/><ellipse cx="1649.780269058296" cy="325.10313901345296" rx="11.715246636771301" ry="6.390134529147981" fill="#a0b581" stroke="none"/><ellipse cx="1631.6748878923768" cy="292.89686098654715" rx="11.715246636771301" ry="6.390134529147981" fill="#a0b581" stroke="none"/><ellipse cx="1727.5269058295964" cy="287.7847533632288" rx="11.715246636771301" ry="6.390134529147981" fill="#a0b581" stroke="none"/><ellipse cx="1857.4596412556054" cy="366.55605381165924" rx="11.715246636771301" ry="4.792600896860987" fill="#896643" stroke="none"/><text x="1872.46" y="353.56" font-size="17" fill="#b48135" font-weight="700" text-anchor="start">牛</text><text x="1160.00" y="668.00" font-size="17" fill="#62776d" font-weight="400" text-anchor="start">墙体暂按1.8m示意；高程采用原基准。体块不额外增加通路。</text><rect x="1130" y="725" width="1015" height="430" rx="14" fill="#fcfaf3" stroke="#d9dccc"/><text x="1160.00" y="766.00" font-size="24" fill="#243f39" font-weight="700" text-anchor="start">03  S—S′ 关键侧面 / 高程对照</text><polyline points="1190.00,1001.43 2060.00,1001.43" fill="none" stroke="#ccd4c6" stroke-width="1" stroke-linecap="round" stroke-linejoin="round" stroke-dasharray="4 6"/><text x="1178.00" y="1006.43" font-size="14" fill="#62776d" font-weight="400" text-anchor="end">H-2</text><polyline points="1190.00,960.00 2060.00,960.00" fill="none" stroke="#ccd4c6" stroke-width="1" stroke-linecap="round" stroke-linejoin="round" stroke-dasharray="4 6"/><text x="1178.00" y="965.00" font-size="14" fill="#62776d" font-weight="400" text-anchor="end">H+0</text><polyline points="1190.00,897.86 2060.00,897.86" fill="none" stroke="#ccd4c6" stroke-width="1" stroke-linecap="round" stroke-linejoin="round" stroke-dasharray="4 6"/><text x="1178.00" y="902.86" font-size="14" fill="#62776d" font-weight="400" text-anchor="end">H+3</text><rect x="1190.0" y="1001.4285714285714" width="766.4285714285714" height="31.071428571428573" rx="0" fill="#c8c5ab" stroke="#718372"/><rect x="1417.857142857143" y="964.1428571428571" width="24.857142857142858" height="37.28571428571429" rx="0" fill="#6f836e" stroke="#718372"/><rect x="1687.142857142857" y="964.1428571428571" width="20.714285714285715" height="37.28571428571429" rx="0" fill="#6f836e" stroke="#718372"/><rect x="1956.4285714285716" y="1008.6785714285714" width="103.57142857142858" height="23.82142857142857" rx="0" fill="#a0c7c8" stroke="#718372"/><ellipse cx="1919.1428571428573" cy="985.8928571428571" rx="20.714285714285715" ry="7.25" fill="#886646" stroke="none"/><circle cx="1942.964285714286" cy="985.8928571428571" r="5.800000000000001" fill="#886646" stroke="none"/><text x="1863.21" y="981.43" font-size="16" fill="#b48135" font-weight="700" text-anchor="middle">踢区在干岸</text><text x="1160.00" y="1093.00" font-size="17" fill="#62776d" font-weight="400" text-anchor="start">沿局部Z=13向北看；全区地面H−2，右侧为河。</text><text x="1160.00" y="1126.00" font-size="17" fill="#62776d" font-weight="400" text-anchor="start">示意人物高1.75m；材质起伏不得增加台阶或改变碰撞。</text><rect x="55" y="1185" width="685" height="185" rx="10" fill="#e4e8d9" stroke="none"/><text x="79.00" y="1226.00" font-size="23" fill="#278b8c" font-weight="700" text-anchor="start">01  轮廓</text><text x="79.00" y="1271.00" font-size="19" fill="#243f39" font-weight="400" text-anchor="start">西南入口、中央河湾、东北文书院。</text><text x="79.00" y="1310.00" font-size="18" fill="#62776d" font-weight="400" text-anchor="start">东侧X≥37为水；牛头向东、后蹄朝干岸。</text><rect x="765" y="1185" width="685" height="185" rx="10" fill="#e4e8d9" stroke="none"/><text x="789.00" y="1226.00" font-size="23" fill="#278b8c" font-weight="700" text-anchor="start">02  功能</text><text x="789.00" y="1271.00" font-size="19" fill="#243f39" font-weight="400" text-anchor="start">九处硬遮挡必须保留原足迹；装饰货物放墙内。</text><text x="789.00" y="1310.00" font-size="18" fill="#62776d" font-weight="400" text-anchor="start">信在D02/D04/D07；不把桌面道具画成额外目标。</text><rect x="1475" y="1185" width="685" height="185" rx="10" fill="#e4e8d9" stroke="none"/><text x="1499.00" y="1226.00" font-size="23" fill="#278b8c" font-weight="700" text-anchor="start">03  衔接</text><text x="1499.00" y="1271.00" font-size="19" fill="#243f39" font-weight="400" text-anchor="start">世界原点(40,−15,−2)；整区行走面H−2。</text><text x="1499.00" y="1310.00" font-size="18" fill="#62776d" font-weight="400" text-anchor="start">入口(2,2)，出口(37,30)；向E经原缓坡升2m。</text><text x="55.00" y="1420.00" font-size="23" fill="#243f39" font-weight="700" text-anchor="start">锁定：区域原点、墙体足迹、敌人点位、藤蔓与跳点。建议：材质、背景建筑体量、植物与墙顶造型。</text><text x="55.00" y="1464.00" font-size="20" fill="#62776d" font-weight="400" text-anchor="start">平面与体块由既有坐标直接绘制；侧面为指定剖切线。美术细化后须复验导航、视线遮挡和摄像机。</text></g></svg>