<svg xmlns="http://www.w3.org/2000/svg" width="2100" height="1910" viewBox="0 0 2100 1910"><defs><pattern id="hatch" width="9" height="9" patternUnits="userSpaceOnUse" patternTransform="rotate(35)"><line x1="0" y1="0" x2="0" y2="9" stroke="#B74C43" stroke-width="2" opacity=".35"/></pattern><marker id="teal" markerWidth="9" markerHeight="9" refX="7" refY="4" orient="auto"><path d="M0 0 L8 4 L0 8 Z" fill="#258F97"/></marker><marker id="amber" markerWidth="9" markerHeight="9" refX="7" refY="4" orient="auto"><path d="M0 0 L8 4 L0 8 Z" fill="#C18B2A"/></marker><marker id="red" markerWidth="9" markerHeight="9" refX="7" refY="4" orient="auto"><path d="M0 0 L8 4 L0 8 Z" fill="#B74C43"/></marker><marker id="purple" markerWidth="9" markerHeight="9" refX="7" refY="4" orient="auto"><path d="M0 0 L8 4 L0 8 Z" fill="#87649D"/></marker><marker id="ink" markerWidth="9" markerHeight="9" refX="7" refY="4" orient="auto"><path d="M0 0 L8 4 L0 8 Z" fill="#243D38"/></marker></defs><rect width="100%" height="100%" fill="#F4F1E7"/><g font-family="Microsoft YaHei,SimHei,sans-serif" fill="#243D38"><text x="55.00" y="64.00" font-size="32" fill="#243D38" text-anchor="start" font-weight="700">02 / 统一坐标总平面：所有局部图从这里定位</text><text x="55.00" y="99.00" font-size="16" fill="#657670" text-anchor="start">世界坐标 X / Z / H，单位米 · 各区不旋转、不缩放 · B 为 C 外缘低层，按图层区分桥上与桥下</text><polyline points="55.00,120.00 2045.00,120.00" fill="none" stroke="#CDCFC3" stroke-width="1" stroke-linecap="round" stroke-linejoin="round"/><rect x="133" y="212" width="1424" height="1488" rx="3" fill="#E6EADB" stroke="#BAC5B6" stroke-width="1"/><polyline points="165.00,1700.00 165.00,212.00" fill="none" stroke="#C7D0C2" stroke-width="1" stroke-linecap="round" stroke-linejoin="round"/><text x="165.00" y="196.00" font-size="13" fill="#657670" text-anchor="start" font-weight="700">0</text><polyline points="325.00,1700.00 325.00,212.00" fill="none" stroke="#C7D0C2" stroke-width="1" stroke-linecap="round" stroke-linejoin="round"/><text x="325.00" y="196.00" font-size="13" fill="#657670" text-anchor="start" font-weight="700">10</text><polyline points="485.00,1700.00 485.00,212.00" fill="none" stroke="#C7D0C2" stroke-width="1" stroke-linecap="round" stroke-linejoin="round"/><text x="485.00" y="196.00" font-size="13" fill="#657670" text-anchor="start" font-weight="700">20</text><polyline points="645.00,1700.00 645.00,212.00" fill="none" stroke="#C7D0C2" stroke-width="1" stroke-linecap="round" stroke-linejoin="round"/><text x="645.00" y="196.00" font-size="13" fill="#657670" text-anchor="start" font-weight="700">30</text><polyline points="805.00,1700.00 805.00,212.00" fill="none" stroke="#C7D0C2" stroke-width="1" stroke-linecap="round" stroke-linejoin="round"/><text x="805.00" y="196.00" font-size="13" fill="#657670" text-anchor="start" font-weight="700">40</text><polyline points="965.00,1700.00 965.00,212.00" fill="none" stroke="#C7D0C2" stroke-width="1" stroke-linecap="round" stroke-linejoin="round"/><text x="965.00" y="196.00" font-size="13" fill="#657670" text-anchor="start" font-weight="700">50</text><polyline points="1125.00,1700.00 1125.00,212.00" fill="none" stroke="#C7D0C2" stroke-width="1" stroke-linecap="round" stroke-linejoin="round"/><text x="1125.00" y="196.00" font-size="13" fill="#657670" text-anchor="start" font-weight="700">60</text><polyline points="1285.00,1700.00 1285.00,212.00" fill="none" stroke="#C7D0C2" stroke-width="1" stroke-linecap="round" stroke-linejoin="round"/><text x="1285.00" y="196.00" font-size="13" fill="#657670" text-anchor="start" font-weight="700">70</text><polyline points="1445.00,1700.00 1445.00,212.00" fill="none" stroke="#C7D0C2" stroke-width="1" stroke-linecap="round" stroke-linejoin="round"/><text x="1445.00" y="196.00" font-size="13" fill="#657670" text-anchor="start" font-weight="700">80</text><polyline points="1605.00,1700.00 1605.00,212.00" fill="none" stroke="#C7D0C2" stroke-width="1" stroke-linecap="round" stroke-linejoin="round"/><text x="1605.00" y="196.00" font-size="13" fill="#657670" text-anchor="start" font-weight="700">90</text><polyline points="133.00,1572.00 1557.00,1572.00" fill="none" stroke="#C7D0C2" stroke-width="1" stroke-linecap="round" stroke-linejoin="round"/><text x="101.00" y="1572.00" font-size="13" fill="#657670" text-anchor="start" font-weight="700">-20</text><polyline points="133.00,1412.00 1557.00,1412.00" fill="none" stroke="#C7D0C2" stroke-width="1" stroke-linecap="round" stroke-linejoin="round"/><text x="101.00" y="1412.00" font-size="13" fill="#657670" text-anchor="start" font-weight="700">-10</text><polyline points="133.00,1252.00 1557.00,1252.00" fill="none" stroke="#C7D0C2" stroke-width="1" stroke-linecap="round" stroke-linejoin="round"/><text x="101.00" y="1252.00" font-size="13" fill="#657670" text-anchor="start" font-weight="700">0</text><polyline points="133.00,1092.00 1557.00,1092.00" fill="none" stroke="#C7D0C2" stroke-width="1" stroke-linecap="round" stroke-linejoin="round"/><text x="101.00" y="1092.00" font-size="13" fill="#657670" text-anchor="start" font-weight="700">10</text><polyline points="133.00,932.00 1557.00,932.00" fill="none" stroke="#C7D0C2" stroke-width="1" stroke-linecap="round" stroke-linejoin="round"/><text x="101.00" y="932.00" font-size="13" fill="#657670" text-anchor="start" font-weight="700">20</text><polyline points="133.00,772.00 1557.00,772.00" fill="none" stroke="#C7D0C2" stroke-width="1" stroke-linecap="round" stroke-linejoin="round"/><text x="101.00" y="772.00" font-size="13" fill="#657670" text-anchor="start" font-weight="700">30</text><polyline points="133.00,612.00 1557.00,612.00" fill="none" stroke="#C7D0C2" stroke-width="1" stroke-linecap="round" stroke-linejoin="round"/><text x="101.00" y="612.00" font-size="13" fill="#657670" text-anchor="start" font-weight="700">40</text><polyline points="133.00,452.00 1557.00,452.00" fill="none" stroke="#C7D0C2" stroke-width="1" stroke-linecap="round" stroke-linejoin="round"/><text x="101.00" y="452.00" font-size="13" fill="#657670" text-anchor="start" font-weight="700">50</text><polyline points="133.00,292.00 1557.00,292.00" fill="none" stroke="#C7D0C2" stroke-width="1" stroke-linecap="round" stroke-linejoin="round"/><text x="101.00" y="292.00" font-size="13" fill="#657670" text-anchor="start" font-weight="700">60</text><rect x="1397" y="900" width="112" height="640" rx="3" fill="#A3C9CB" stroke="none" stroke-width="1"/><text x="1429.00" y="916.00" font-size="17" fill="#3F717C" text-anchor="start" font-weight="700">山溪</text><polyline points="581.00,1412.00 517.00,1348.00" fill="none" stroke="#C8C4AC" stroke-width="48" stroke-linecap="round" stroke-linejoin="round"/><polyline points="517.00,1348.00 357.00,1348.00 357.00,1156.00" fill="none" stroke="#C8C4AC" stroke-width="48" stroke-linecap="round" stroke-linejoin="round"/><polyline points="517.00,1348.00 517.00,1252.00 485.00,1252.00 485.00,1220.00" fill="none" stroke="#C8C4AC" stroke-width="48" stroke-linecap="round" stroke-linejoin="round"/><polyline points="577.80,1080.80 621.00,1080.80 693.00,1080.80 693.00,1460.00 837.00,1460.00" fill="none" stroke="#C8C4AC" stroke-width="48" stroke-linecap="round" stroke-linejoin="round"/><polyline points="1397.00,1012.00 1413.00,900.00 1365.00,836.00" fill="none" stroke="#C8C4AC" stroke-width="48" stroke-linecap="round" stroke-linejoin="round"/><polyline points="1365.00,772.00 1365.00,724.00 837.00,724.00 837.00,644.00" fill="none" stroke="#C8C4AC" stroke-width="48" stroke-linecap="round" stroke-linejoin="round"/><rect x="245" y="1364" width="384" height="288" rx="3" fill="#D9D5C3" stroke="#819383" stroke-width="1"/><text x="253.00" y="1388.00" font-size="19" fill="#243D38" text-anchor="start" font-weight="700">A · 林径首杀 · H +0</text><rect x="357" y="1508" width="32" height="64" rx="3" fill="#60776A" stroke="none" stroke-width="1"/><rect x="453" y="1460" width="80" height="16" rx="3" fill="#60776A" stroke="none" stroke-width="1"/><rect x="165" y="900" width="480" height="352" rx="3" fill="#D9D5C3" stroke="#819383" stroke-width="1"/><text x="173.00" y="924.00" font-size="19" fill="#243D38" text-anchor="start" font-weight="700">C · 山寺庭院 · H +0</text><rect x="197" y="1164.0" width="142.4" height="11.2" rx="3" fill="#60776A" stroke="none" stroke-width="1"/><rect x="374.6" y="1164.0" width="206.4" height="11.2" rx="3" fill="#60776A" stroke="none" stroke-width="1"/><rect x="197" y="1108" width="11.2" height="64" rx="3" fill="#60776A" stroke="none" stroke-width="1"/><rect x="197" y="980" width="11.2" height="96" rx="3" fill="#60776A" stroke="none" stroke-width="1"/><rect x="565" y="1100.0" width="11.2" height="72.0" rx="3" fill="#60776A" stroke="none" stroke-width="1"/><rect x="565" y="980" width="11.2" height="80" rx="3" fill="#60776A" stroke="none" stroke-width="1"/><rect x="325" y="1076" width="16" height="48" rx="3" fill="#60776A" stroke="none" stroke-width="1"/><rect x="229" y="948" width="288" height="16" rx="3" fill="#60776A" stroke="none" stroke-width="1"/><rect x="805" y="948" width="672" height="544" rx="3" fill="#D9D5C3" stroke="#819383" stroke-width="1"/><text x="813.00" y="972.00" font-size="19" fill="#243D38" text-anchor="start" font-weight="700">D · 河岸补给院 · H -2</text><rect x="881.8" y="1399.2" width="16" height="32" rx="3" fill="#60776A" stroke="none" stroke-width="1"/><rect x="913.8" y="1316" width="88.0" height="16" rx="3" fill="#60776A" stroke="none" stroke-width="1"/><rect x="981" y="1268" width="19.2" height="64" rx="3" fill="#60776A" stroke="none" stroke-width="1"/><rect x="1093" y="1300" width="16" height="64" rx="3" fill="#60776A" stroke="none" stroke-width="1"/><rect x="1189" y="1204" width="16" height="128" rx="3" fill="#60776A" stroke="none" stroke-width="1"/><rect x="1333" y="1172" width="56.0" height="32" rx="3" fill="#60776A" stroke="none" stroke-width="1"/><rect x="1125" y="976.8" width="16" height="56.0" rx="3" fill="#60776A" stroke="none" stroke-width="1"/><rect x="1205" y="1156" width="112" height="16" rx="3" fill="#60776A" stroke="none" stroke-width="1"/><rect x="1197.0" y="986.4" width="16" height="48" rx="3" fill="#60776A" stroke="none" stroke-width="1"/><rect x="1285" y="740" width="160" height="128" rx="3" fill="#C8D6B5" stroke="#819383" stroke-width="1"/><text x="1293.00" y="764.00" font-size="19" fill="#243D38" text-anchor="start" font-weight="700">E · 岩后整装 · H +0</text><rect x="805" y="260" width="512" height="416" rx="3" fill="#D9D5C3" stroke="#819383" stroke-width="1"/><text x="813.00" y="284.00" font-size="19" fill="#243D38" text-anchor="start" font-weight="700">F · 出山联防岗 · H +0</text><rect x="901" y="612" width="96" height="16" rx="3" fill="#60776A" stroke="none" stroke-width="1"/><rect x="1013" y="528.8" width="16" height="67.2" rx="3" fill="#60776A" stroke="none" stroke-width="1"/><rect x="1013" y="528.8" width="80" height="16" rx="3" fill="#60776A" stroke="none" stroke-width="1"/><rect x="1104.2" y="420" width="12.8" height="80" rx="3" fill="#60776A" stroke="none" stroke-width="1"/><rect x="1189" y="452" width="16" height="32" rx="3" fill="#60776A" stroke="none" stroke-width="1"/><rect x="1149.0" y="367.20000000000005" width="11.2" height="64" rx="3" fill="#60776A" stroke="none" stroke-width="1"/><rect x="1141" y="340" width="96" height="16" rx="3" fill="#60776A" stroke="none" stroke-width="1"/><rect x="917" y="420" width="144" height="16" rx="3" fill="#60776A" stroke="none" stroke-width="1"/><rect x="213" y="964" width="304" height="64" rx="3" fill="#A6B397" stroke="none" stroke-width="1"/><text x="229.00" y="980.00" font-size="14" fill="#243D38" text-anchor="start" font-weight="700">落石台 H +3</text><rect x="453" y="1196.0" width="48" height="40.0" rx="3" fill="#A0AEA1" stroke="#526B61" stroke-width="1"/><rect x="397.0" y="1196.0" width="48" height="40.0" rx="3" fill="#A0AEA1" stroke="#526B61" stroke-width="1"/><rect x="337.8" y="1196.0" width="48" height="40.0" rx="3" fill="#A0AEA1" stroke="#526B61" stroke-width="1"/><rect x="277" y="1196.0" width="48" height="40.0" rx="3" fill="#A0AEA1" stroke="#526B61" stroke-width="1"/><polyline points="485.00,1220.00 458.60,1220.00 439.40,1220.00 402.60,1220.00 380.20,1220.00 343.40,1220.00 319.40,1220.00 285.00,1220.00 173.00,1220.00 173.00,1092.00 184.20,1092.00" fill="none" stroke="#C18B2A" stroke-width="4" stroke-linecap="round" stroke-linejoin="round" stroke-dasharray="5 4" marker-end="url(#amber)"/><rect x="339.4" y="1175.2" width="35.2" height="84.8" rx="3" fill="#BAA881" stroke="#816F51" stroke-width="1"/><text x="549.00" y="1268.00" font-size="13" fill="#243D38" text-anchor="start" font-weight="700">石拱引桥 H0</text><text x="181.00" y="1300.00" font-size="15" fill="#C18B2A" text-anchor="start" font-weight="700">B 崖下同高路 H−3</text><polyline points="581.00,1412.00 517.00,1348.00" fill="none" stroke="#258F97" stroke-width="4" stroke-linecap="round" stroke-linejoin="round" marker-end="url(#teal)"/><polyline points="517.00,1348.00 357.00,1348.00 357.00,1156.00" fill="none" stroke="#B74C43" stroke-width="4" stroke-linecap="round" stroke-linejoin="round" stroke-dasharray="7 5" marker-end="url(#red)"/><polyline points="517.00,1348.00 517.00,1252.00 485.00,1252.00 485.00,1220.00" fill="none" stroke="#258F97" stroke-width="4" stroke-linecap="round" stroke-linejoin="round" marker-end="url(#teal)"/><polyline points="577.80,1080.80 621.00,1080.80 693.00,1080.80 693.00,1460.00 837.00,1460.00" fill="none" stroke="#258F97" stroke-width="4" stroke-linecap="round" stroke-linejoin="round" marker-end="url(#teal)"/><polyline points="1397.00,1012.00 1413.00,900.00 1365.00,836.00" fill="none" stroke="#258F97" stroke-width="4" stroke-linecap="round" stroke-linejoin="round" marker-end="url(#teal)"/><polyline points="1365.00,772.00 1365.00,724.00 837.00,724.00 837.00,644.00" fill="none" stroke="#258F97" stroke-width="4" stroke-linecap="round" stroke-linejoin="round" marker-end="url(#teal)"/><circle cx="485" cy="1220" r="8" fill="#C18B2A" stroke="white" stroke-width="2"/><text x="497.00" y="1212.00" font-size="16" fill="#C18B2A" text-anchor="start" font-weight="700">V1</text><circle cx="184.2" cy="1092" r="8" fill="#C18B2A" stroke="white" stroke-width="2"/><text x="196.20" y="1084.00" font-size="16" fill="#C18B2A" text-anchor="start" font-weight="700">V2</text><circle cx="261" cy="1028" r="8" fill="#C18B2A" stroke="white" stroke-width="2"/><text x="273.00" y="1020.00" font-size="16" fill="#C18B2A" text-anchor="start" font-weight="700">V3</text><text x="441.00" y="1252.00" font-size="12" fill="#C18B2A" text-anchor="start" font-weight="700">J1</text><text x="383.40" y="1252.00" font-size="12" fill="#C18B2A" text-anchor="start" font-weight="700">J2</text><text x="323.40" y="1252.00" font-size="12" fill="#C18B2A" text-anchor="start" font-weight="700">J3</text><circle cx="437" cy="1540" r="7" fill="#B74C43" stroke="#F9F5E8" stroke-width="1"/><polyline points="437.00,1540.00 423.00,1540.00" fill="none" stroke="#B74C43" stroke-width="2" stroke-linecap="round" stroke-linejoin="round"/><text x="446.00" y="1533.00" font-size="12" fill="#B74C43" text-anchor="start" font-weight="700">A01</text><circle cx="293" cy="1124" r="7" fill="#B74C43" stroke="#F9F5E8" stroke-width="1"/><polyline points="293.00,1124.00 305.52,1130.26" fill="none" stroke="#B74C43" stroke-width="2" stroke-linecap="round" stroke-linejoin="round"/><text x="302.00" y="1117.00" font-size="12" fill="#B74C43" text-anchor="start" font-weight="700">C01</text><circle cx="421" cy="1124" r="7" fill="#B74C43" stroke="#F9F5E8" stroke-width="1"/><polyline points="421.00,1124.00 408.48,1130.26" fill="none" stroke="#B74C43" stroke-width="2" stroke-linecap="round" stroke-linejoin="round"/><text x="430.00" y="1117.00" font-size="12" fill="#B74C43" text-anchor="start" font-weight="700">C02</text><circle cx="453" cy="1092" r="7" fill="#B74C43" stroke="#F9F5E8" stroke-width="1"/><polyline points="453.00,1092.00 467.00,1092.00" fill="none" stroke="#B74C43" stroke-width="2" stroke-linecap="round" stroke-linejoin="round"/><text x="462.00" y="1085.00" font-size="12" fill="#B74C43" text-anchor="start" font-weight="700">C03</text><circle cx="933" cy="1380" r="7" fill="#B74C43" stroke="#F9F5E8" stroke-width="1"/><polyline points="933.00,1380.00 933.00,1366.00" fill="none" stroke="#B74C43" stroke-width="2" stroke-linecap="round" stroke-linejoin="round"/><text x="942.00" y="1373.00" font-size="12" fill="#B74C43" text-anchor="start" font-weight="700">D01</text><circle cx="1045" cy="1348" r="7" fill="#B74C43" stroke="#F9F5E8" stroke-width="1"/><polyline points="1045.00,1348.00 1031.00,1348.00" fill="none" stroke="#B74C43" stroke-width="2" stroke-linecap="round" stroke-linejoin="round"/><text x="1054.00" y="1341.00" font-size="12" fill="#B74C43" text-anchor="start" font-weight="700">D02 信</text><circle cx="1157" cy="1252" r="7" fill="#B74C43" stroke="#F9F5E8" stroke-width="1"/><polyline points="1157.00,1252.00 1157.00,1266.00" fill="none" stroke="#B74C43" stroke-width="2" stroke-linecap="round" stroke-linejoin="round"/><text x="1166.00" y="1245.00" font-size="12" fill="#B74C43" text-anchor="start" font-weight="700">D03</text><circle cx="1269" cy="1300" r="7" fill="#B74C43" stroke="#F9F5E8" stroke-width="1"/><polyline points="1269.00,1300.00 1282.58,1296.61" fill="none" stroke="#B74C43" stroke-width="2" stroke-linecap="round" stroke-linejoin="round"/><text x="1278.00" y="1293.00" font-size="12" fill="#B74C43" text-anchor="start" font-weight="700">D04 信</text><circle cx="1381" cy="1124" r="7" fill="#B74C43" stroke="#F9F5E8" stroke-width="1"/><polyline points="1381.00,1124.00 1371.10,1133.90" fill="none" stroke="#B74C43" stroke-width="2" stroke-linecap="round" stroke-linejoin="round"/><text x="1390.00" y="1117.00" font-size="12" fill="#B74C43" text-anchor="start" font-weight="700">D05</text><circle cx="1173" cy="1060" r="7" fill="#B74C43" stroke="#F9F5E8" stroke-width="1"/><polyline points="1173.00,1060.00 1187.00,1060.00" fill="none" stroke="#B74C43" stroke-width="2" stroke-linecap="round" stroke-linejoin="round"/><text x="1182.00" y="1053.00" font-size="12" fill="#B74C43" text-anchor="start" font-weight="700">D06</text><circle cx="1301" cy="1060" r="7" fill="#B74C43" stroke="#F9F5E8" stroke-width="1"/><polyline points="1301.00,1060.00 1315.00,1060.00" fill="none" stroke="#B74C43" stroke-width="2" stroke-linecap="round" stroke-linejoin="round"/><text x="1310.00" y="1053.00" font-size="12" fill="#B74C43" text-anchor="start" font-weight="700">D07 信</text><circle cx="1061" cy="1124" r="7" fill="#B74C43" stroke="#F9F5E8" stroke-width="1"/><polyline points="1061.00,1124.00 1061.00,1138.00" fill="none" stroke="#B74C43" stroke-width="2" stroke-linecap="round" stroke-linejoin="round"/><text x="1070.00" y="1117.00" font-size="12" fill="#B74C43" text-anchor="start" font-weight="700">D08</text><circle cx="965" cy="516" r="7" fill="#B74C43" stroke="#F9F5E8" stroke-width="1"/><polyline points="965.00,516.00 979.00,516.00" fill="none" stroke="#B74C43" stroke-width="2" stroke-linecap="round" stroke-linejoin="round"/><text x="974.00" y="509.00" font-size="12" fill="#B74C43" text-anchor="start" font-weight="700">F01</text><circle cx="1061" cy="516" r="7" fill="#B74C43" stroke="#F9F5E8" stroke-width="1"/><polyline points="1061.00,516.00 1047.00,516.00" fill="none" stroke="#B74C43" stroke-width="2" stroke-linecap="round" stroke-linejoin="round"/><text x="1070.00" y="509.00" font-size="12" fill="#B74C43" text-anchor="start" font-weight="700">F02</text><circle cx="1125" cy="420" r="7" fill="#B74C43" stroke="#F9F5E8" stroke-width="1"/><polyline points="1125.00,420.00 1125.00,434.00" fill="none" stroke="#B74C43" stroke-width="2" stroke-linecap="round" stroke-linejoin="round"/><text x="1134.00" y="413.00" font-size="12" fill="#B74C43" text-anchor="start" font-weight="700">F03</text><circle cx="1205" cy="388" r="7" fill="#B74C43" stroke="#F9F5E8" stroke-width="1"/><polyline points="1205.00,388.00 1205.00,402.00" fill="none" stroke="#B74C43" stroke-width="2" stroke-linecap="round" stroke-linejoin="round"/><text x="1214.00" y="381.00" font-size="12" fill="#B74C43" text-anchor="start" font-weight="700">F04</text><polyline points="277.00,1620.00 325.00,1628.00 437.00,1628.00 437.00,1604.00 437.00,1552.80" fill="none" stroke="#258F97" stroke-width="4" stroke-linecap="round" stroke-linejoin="round" marker-end="url(#teal)"/><polyline points="184.20,1092.00 219.40,1092.00 248.20,1092.00 280.20,1117.60" fill="none" stroke="#258F97" stroke-width="4" stroke-linecap="round" stroke-linejoin="round" marker-end="url(#teal)"/><polyline points="261.00,1028.00 261.00,996.00 437.00,996.00 437.00,1028.00" fill="none" stroke="#C18B2A" stroke-width="4" stroke-linecap="round" stroke-linejoin="round" stroke-dasharray="5 4" marker-end="url(#amber)"/><polyline points="261.00,1028.00 261.00,1068.00 357.00,1053.60 541.00,1053.60 577.80,1080.80" fill="none" stroke="#258F97" stroke-width="4" stroke-linecap="round" stroke-linejoin="round" marker-end="url(#teal)"/><text x="1301.00" y="820.00" font-size="14" fill="#243D38" text-anchor="start" font-weight="700">CP_04</text><text x="1221.00" y="292.00" font-size="17" fill="#258F97" text-anchor="start" font-weight="700">出口</text><circle cx="1575" cy="194" r="15" fill="#258F97" stroke="none" stroke-width="1"/><text x="1575.00" y="200.00" font-size="15" fill="white" text-anchor="middle" font-weight="700">1</text><text x="1601.00" y="200.00" font-size="17" fill="#243D38" text-anchor="start">统一基准</text><text x="1601.00" y="226.00" font-size="17" fill="#243D38" text-anchor="start">A 原点 (5,−25,0)</text><text x="1601.00" y="252.00" font-size="17" fill="#243D38" text-anchor="start">C 原点 (0,0,0)</text><text x="1601.00" y="278.00" font-size="17" fill="#243D38" text-anchor="start">D 原点 (40,−15,−2)</text><text x="1601.00" y="304.00" font-size="17" fill="#243D38" text-anchor="start">E 原点 (70,24,0)</text><text x="1601.00" y="330.00" font-size="17" fill="#243D38" text-anchor="start">F 原点 (40,36,0)</text><circle cx="1575" cy="419" r="15" fill="#C18B2A" stroke="none" stroke-width="1"/><text x="1575.00" y="425.00" font-size="15" fill="white" text-anchor="middle" font-weight="700">2</text><text x="1601.00" y="425.00" font-size="17" fill="#243D38" text-anchor="start">高差只通过明确连接</text><text x="1601.00" y="451.00" font-size="17" fill="#243D38" text-anchor="start">V1：H0 → H−3</text><text x="1601.00" y="477.00" font-size="17" fill="#243D38" text-anchor="start">V2：H−3 → H0</text><text x="1601.00" y="503.00" font-size="17" fill="#243D38" text-anchor="start">V3：H0 ↔ H+3</text><text x="1601.00" y="529.00" font-size="17" fill="#243D38" text-anchor="start">跨区高差用缓坡，非跳高。</text><circle cx="1575" cy="619" r="15" fill="#258F97" stroke="none" stroke-width="1"/><text x="1575.00" y="625.00" font-size="15" fill="white" text-anchor="middle" font-weight="700">3</text><text x="1601.00" y="625.00" font-size="17" fill="#243D38" text-anchor="start">门前石拱引桥 H0</text><text x="1601.00" y="651.00" font-size="17" fill="#243D38" text-anchor="start">崖下巨石路径 H−3</text><text x="1601.00" y="677.00" font-size="17" fill="#243D38" text-anchor="start">两者平面相交，但导航不相连。</text><text x="1601.00" y="703.00" font-size="17" fill="#243D38" text-anchor="start">桥底净空 ≥2.2m。</text><text x="1601.00" y="729.00" font-size="17" fill="#243D38" text-anchor="start">V2 沿寺院西侧外崖上墙口。</text><circle cx="1575" cy="819" r="15" fill="#258F97" stroke="none" stroke-width="1"/><text x="1575.00" y="825.00" font-size="15" fill="white" text-anchor="middle" font-weight="700">4</text><text x="1601.00" y="825.00" font-size="17" fill="#243D38" text-anchor="start">C → D 从东侧门接出</text><text x="1601.00" y="851.00" font-size="17" fill="#243D38" text-anchor="start">沿 X=33 的山侧缓坡向南。</text><text x="1601.00" y="877.00" font-size="17" fill="#243D38" text-anchor="start">D → E 由东北芦苇口出。</text><text x="1601.00" y="903.00" font-size="17" fill="#243D38" text-anchor="start">E → F 沿北侧折返坡入场。</text><text x="1601.00" y="929.00" font-size="17" fill="#243D38" text-anchor="start">四条接口均固定为世界锚点。</text><circle cx="1575" cy="1024" r="15" fill="#B74C43" stroke="none" stroke-width="1"/><text x="1575.00" y="1030.00" font-size="15" fill="white" text-anchor="middle" font-weight="700">5</text><text x="1601.00" y="1030.00" font-size="17" fill="#243D38" text-anchor="start">各区细节见对应局部图</text><text x="1601.00" y="1056.00" font-size="17" fill="#243D38" text-anchor="start">这里保留真实比例与朝向；</text><text x="1601.00" y="1082.00" font-size="17" fill="#243D38" text-anchor="start">不把流程箭头当作额外道路。</text><text x="1601.00" y="1108.00" font-size="17" fill="#243D38" text-anchor="start">红点共16；带信目标共3。</text><text x="1601.00" y="1134.00" font-size="17" fill="#243D38" text-anchor="start">D/F 内部完整路线见详图。</text><circle cx="1575" cy="1244" r="15" fill="#258F97" stroke="none" stroke-width="1"/><text x="1575.00" y="1250.00" font-size="15" fill="white" text-anchor="middle" font-weight="700">6</text><text x="1601.00" y="1250.00" font-size="17" fill="#243D38" text-anchor="start">总体有效边界约 90 × 95m</text><text x="1601.00" y="1276.00" font-size="17" fill="#243D38" text-anchor="start">外围植被与远景另加。</text><text x="1601.00" y="1302.00" font-size="17" fill="#243D38" text-anchor="start">道路净宽 ≥2m；连接缓坡 ≥3m。</text><text x="1601.00" y="1328.00" font-size="17" fill="#243D38" text-anchor="start">双人停留区宽 ≥2.5m。</text><text x="1601.00" y="1354.00" font-size="17" fill="#243D38" text-anchor="start">B 只在明确跳点断开导航。</text><text x="85.00" y="1810.00" font-size="22" fill="#243D38" text-anchor="start" font-weight="700">方位：图上为北 / +Z；所有局部图沿用本方向。概念图可改变镜头，但不能改变世界位置。</text><text x="85.00" y="1855.00" font-size="20" fill="#657670" text-anchor="start">图层：青线 H0/缓坡主路；金虚线 H−3崖下或H+3台地；红虚线为正门危险路线。</text></g></svg>